<?xml version="1.0" encoding="iso-8859-1"?>
<!-- Generator: Adobe Illustrator 19.0.0, SVG Export Plug-In . SVG Version: 6.00 Build 0)  -->
<svg version="1.1" id="Capa_1" xmlns="http://www.w3.org/2000/svg" xmlns:xlink="http://www.w3.org/1999/xlink" x="0px" y="0px"
	 viewBox="0 0 512 512" style="enable-background:new 0 0 512 512;" xml:space="preserve">
<g>
	<g>
		<g>
			<path d="M464,240V119.552C464.105,89.221,446.952,61.47,419.776,48l-96-48H188.224l-96,48C65.048,61.47,47.895,89.221,48,119.552
				V240h67.504l12.16,48.656L96.224,477.36L96,512h320v-32l-31.664-191.344L396.496,240H464z M432,208h-32v-32h32V208z
				 M346.32,47.056l-44.352,44.352l-20.8-13.888L323.2,35.472L346.32,47.056z M281.376,32L256,57.376L230.624,32H281.376z
				 M188.8,35.472l42.08,42.048l-20.8,13.888l-44.4-44.352L188.8,35.472z M112,208H80v-32h32V208z M383.776,480H272V256h-32v224
				H128.224l32.112-192.656L144,222.032V128h-32v16H80v-24.448c-0.067-18.197,10.222-34.849,26.528-42.928l28.976-14.496l70.4,70.4
				L256,99.2l50.032,33.36l70.4-70.4l28.976,14.496c16.32,8.056,26.635,24.696,26.592,42.896V144h-32v-16h-32v94.032l-16.336,65.312
				L383.776,480z"/>
			<rect x="240" y="192" width="32" height="32"/>
			<rect x="240" y="128" width="32" height="32"/>
		</g>
	</g>
</g>
<g>
</g>
<g>
</g>
<g>
</g>
<g>
</g>
<g>
</g>
<g>
</g>
<g>
</g>
<g>
</g>
<g>
</g>
<g>
</g>
<g>
</g>
<g>
</g>
<g>
</g>
<g>
</g>
<g>
</g>
</svg>
