<svg id="Capa_1" enable-background="new 0 0 512 512" height="512" viewBox="0 0 512 512" width="512" xmlns="http://www.w3.org/2000/svg"><g><path d="m308.907 146.778c-7.127-11.026-13.859-21.441-19.022-30.702-2.017-3.618-6.585-4.916-10.203-2.899s-4.916 6.584-2.899 10.203c5.401 9.688 12.262 20.303 19.526 31.541 10.893 16.851 22.937 35.491 33.091 55.591-3.87-1.304-8.253-2.093-13.313-2.093-18.287 0-27.857 10.203-35.548 18.401-7.161 7.633-12.816 13.663-24.607 13.663-11.779 0-17.43-6.029-24.585-13.662-7.686-8.199-17.25-18.403-35.528-18.403-5.012 0-9.361.775-13.203 2.059 10.15-20.087 22.187-38.716 33.074-55.558 15.368-23.775 27.933-43.223 31.035-59.76h33.323c8.556 0 15.516-6.96 15.516-15.516v-24.046c0-8.556-6.96-15.516-15.516-15.516h-.516v-16.549c0-12.975-10.556-23.532-23.532-23.532s-23.532 10.557-23.532 23.532v16.548h-.516c-8.556 0-15.516 6.96-15.516 15.516v24.048c0 8.359 6.649 15.177 14.934 15.487-3.526 13.349-15.153 31.343-28.277 51.646-26.198 40.53-58.803 90.97-58.803 149.303s32.604 108.773 58.802 149.302c12.308 19.041 22.937 35.485 27.326 48.528 3.642 10.82 13.922 18.09 25.582 18.09s21.94-7.27 25.582-18.09c4.389-13.042 15.018-29.487 27.326-48.527 26.198-40.529 58.802-90.97 58.802-149.302s-32.605-108.773-58.803-149.303zm-61.439-123.246c0-4.705 3.828-8.532 8.532-8.532s8.532 3.828 8.532 8.532v16.548h-17.064zm-16.032 32.065c0-.285.231-.516.516-.516h48.097c.285 0 .516.231.516.516v24.048c0 .285-.231.516-.516.516h-48.097c-.285 0-.516-.231-.516-.516zm-60.174 181.482c7.147-7.632 12.793-13.66 24.557-13.66 11.779 0 17.43 6.029 24.585 13.662 7.686 8.199 17.25 18.403 35.528 18.403 18.287 0 27.857-10.203 35.547-18.401 7.161-7.634 12.816-13.664 24.607-13.664s17.447 6.03 24.607 13.664l.764.812c6.38 17.234 10.634 35.333 11.178 54.12-.333-.354-.666-.708-1.002-1.066-7.69-8.198-17.26-18.401-35.547-18.401s-27.857 10.203-35.548 18.401c-7.161 7.633-12.816 13.663-24.607 13.663-11.779 0-17.43-6.029-24.584-13.661-.658-.702-1.317-1.405-1.98-2.102-2.856-3.001-7.604-3.118-10.604-.264-3.001 2.855-3.12 7.602-.264 10.603.638.67 1.271 1.346 1.904 2.022 7.686 8.199 17.25 18.402 35.528 18.402 18.287 0 27.857-10.203 35.547-18.401 7.161-7.634 12.816-13.664 24.607-13.664s17.446 6.029 24.607 13.663c3.382 3.606 6.869 7.299 11.15 10.469-1.33 12.227-4.146 24.133-7.975 35.676-6.58-5.754-15.074-10.68-27.782-10.68-18.287 0-27.857 10.203-35.548 18.401-7.161 7.633-12.816 13.663-24.607 13.663-11.779 0-17.43-6.029-24.585-13.662-7.686-8.199-17.25-18.403-35.528-18.403-12.659 0-21.134 4.902-27.702 10.641-3.823-11.535-6.636-23.433-7.964-35.651 4.279-3.178 7.748-6.872 11.109-10.46 6.548-6.992 11.721-12.514 21.376-13.502 4.121-.421 7.119-4.104 6.698-8.224-.421-4.121-4.11-7.125-8.224-6.698-15.239 1.559-23.505 10.384-30.798 18.17-.319.34-.634.676-.95 1.012.551-18.8 4.817-36.91 11.209-54.155.232-.24.462-.483.691-.728zm125.048 200.161c-12.855 19.887-23.957 37.063-28.945 51.886-1.585 4.71-6.152 7.874-11.365 7.874s-9.78-3.164-11.365-7.873c-4.988-14.824-16.09-32-28.945-51.887-14.256-22.055-30.484-47.172-41.863-74.619 6.052-6.298 11.664-10.944 21.992-10.944 11.779 0 17.43 6.029 24.585 13.662 7.686 8.199 17.25 18.403 35.528 18.403 18.287 0 27.857-10.203 35.547-18.401 7.161-7.634 12.816-13.664 24.607-13.664 10.373 0 15.995 4.665 22.07 10.981-11.377 27.433-27.597 52.538-41.846 74.582z"/></g></svg>