<?xml version="1.0" encoding="iso-8859-1"?>
<!-- Generator: Adobe Illustrator 16.0.0, SVG Export Plug-In . SVG Version: 6.00 Build 0)  -->
<!DOCTYPE svg PUBLIC "-//W3C//DTD SVG 1.1//EN" "http://www.w3.org/Graphics/SVG/1.1/DTD/svg11.dtd">
<svg version="1.1" id="Capa_1" xmlns="http://www.w3.org/2000/svg" xmlns:xlink="http://www.w3.org/1999/xlink" x="0px" y="0px"
	 width="54.667px" height="54.667px" viewBox="0 0 54.667 54.667" style="enable-background:new 0 0 54.667 54.667;"
	 xml:space="preserve">
<g>
	<path d="M49.832,5.125H4.835C2.169,5.125,0,7.294,0,9.96v28.996c0,2.666,2.169,4.836,4.835,4.836h20.498v1.75h-5.875
		c-1.104,0-2,0.896-2,2c0,1.102,0.896,2,2,2h15.625c1.104,0,2-0.898,2-2c0-1.104-0.896-2-2-2h-5.75v-1.75h20.499
		c2.665,0,4.835-2.17,4.835-4.836V9.96C54.667,7.294,52.497,5.125,49.832,5.125z M4,9.96C4,9.5,4.374,9.125,4.835,9.125h44.997
		c0.46,0,0.835,0.375,0.835,0.836v28.996c0,0.461-0.375,0.836-0.835,0.836H4.835C4.374,39.792,4,39.417,4,38.957V9.96z"/>
</g>
<g>
</g>
<g>
</g>
<g>
</g>
<g>
</g>
<g>
</g>
<g>
</g>
<g>
</g>
<g>
</g>
<g>
</g>
<g>
</g>
<g>
</g>
<g>
</g>
<g>
</g>
<g>
</g>
<g>
</g>
</svg>
