<svg id="Layer_5" enable-background="new 0 0 64 64" height="512" viewBox="0 0 64 64" width="512" xmlns="http://www.w3.org/2000/svg"><g><path d="m60.975 27h.025c1.103 0 2-.897 2-2v-2c0-1.103-.897-2-2-2h-.051c-.518-7.805-7.015-14-14.949-14-2.442 0-4.844.603-6.991 1.735-1.257-.659-2.624-1.146-4.078-1.434-1.767-3.718-5.548-6.301-9.931-6.301-4.284 0-8.121 2.454-9.938 6.293-6.55 1.306-11.559 6.892-12.011 13.707h-.051c-1.103 0-2 .897-2 2v2c0 1.103.897 2 2 2h.025c.384 8.921 5.872 16.536 13.611 20h-.636c-1.302 0-2.402.839-2.816 2h-9.184c-1.654 0-3 1.346-3 3s1.346 3 3 3h6c.552 0 1 .448 1 1s-.448 1-1 1h-3c-1.654 0-3 1.346-3 3s1.346 3 3 3h53c1.654 0 3-1.346 3-3s-1.346-3-3-3h-6c-.552 0-1-.448-1-1s.448-1 1-1h3c1.654 0 3-1.346 3-3s-1.346-3-3-3h-6.184c-.414-1.161-1.514-2-2.816-2h-.637c7.74-3.464 13.228-11.079 13.612-20zm-14.975-18c6.83 0 12.435 5.299 12.949 12h-2c-.507-5.598-5.221-10-10.949-10-1.118 0-2.211.175-3.265.502-.534-.546-1.113-1.047-1.728-1.507 1.574-.653 3.272-.995 4.993-.995zm.955 12c-.09-1.386-.364-2.723-.805-3.985 2.346.071 4.293 1.754 4.748 3.985zm5.965 0c-.488-3.387-3.401-6-6.92-6-.237 0-.473.014-.708.038-.334-.642-.706-1.261-1.127-1.844.6-.125 1.213-.194 1.835-.194 4.625 0 8.442 3.507 8.941 8zm-7.965 0h-2.006c-.383-4.222-3.161-7.755-6.962-9.24-.016-.758-.11-1.497-.273-2.211 5.151 1.518 8.834 6.038 9.241 11.451zm-12.006 0c-.092-1.39-.373-2.725-.82-3.987 2.355.062 4.313 1.75 4.769 3.987zm5.971 0c-.488-3.387-3.401-6-6.92-6-.243 0-.485.014-.725.039-.338-.642-.727-1.252-1.151-1.835.613-.131 1.239-.204 1.876-.204 4.625 0 8.442 3.507 8.941 8zm-10.214-9.487c-1.71-1.745-3.837-3.079-6.224-3.828.755-.442 1.619-.685 2.518-.685 2.471 0 4.515 1.806 4.916 4.201-.41.078-.812.187-1.21.312zm-3.706-8.513c4.688 0 8.545 3.604 8.959 8.185-.637-.115-1.29-.185-1.959-.185-.027 0-.053.003-.079.004-.487-3.389-3.401-6.004-6.921-6.004-1.914 0-3.714.779-5.031 2.145-.646-.086-1.3-.145-1.969-.145-.162 0-.319.019-.479.024 1.647-2.481 4.417-4.024 7.479-4.024zm-7 6c6.83 0 12.435 5.299 12.949 12h-2c-.507-5.598-5.221-10-10.949-10s-10.442 4.402-10.949 10h-2c.514-6.701 6.119-12 12.949-12zm.726 6.038c-.241-.025-.483-.038-.726-.038-3.519 0-6.432 2.613-6.92 6h-2.021c.499-4.493 4.316-8 8.941-8 .639 0 1.261.069 1.862.196-.426.587-.801 1.205-1.136 1.842zm-.861 1.976c-.451 1.278-.728 2.617-.819 3.986h-3.945c.456-2.236 2.411-3.922 4.764-3.986zm3.997-3.131c.608.29 1.179.643 1.702 1.057-1.446 1.721-2.315 3.818-2.515 6.06h-2.003c.2-2.604 1.181-5.077 2.816-7.117zm3.136 2.47c1.052 1.301 1.749 2.899 1.943 4.647h-3.882c.187-1.711.856-3.311 1.939-4.647zm-21.998 6.647h58l.001 2h-58.001zm55 29c0 .552-.448 1-1 1h-3c-1.654 0-3 1.346-3 3s1.346 3 3 3h6c.552 0 1 .448 1 1s-.448 1-1 1h-53c-.552 0-1-.448-1-1s.448-1 1-1h3c1.654 0 3-1.346 3-3s-1.346-3-3-3h-6c-.552 0-1-.448-1-1s.448-1 1-1h9.184c.414 1.161 1.514 2 2.816 2h32c1.302 0 2.402-.839 2.816-2h6.184c.552 0 1 .448 1 1zm-10-3c.552 0 1 .448 1 1s-.448 1-1 1h-32c-.552 0-1-.448-1-1s.448-1 1-1h10 12zm-10-2h-12c-11.242 0-20.422-8.887-20.949-20h53.899c-.528 11.113-9.708 20-20.95 20z"/><path d="m42 29c-1.654 0-3 1.346-3 3s1.346 3 3 3 3-1.346 3-3-1.346-3-3-3zm0 4c-.552 0-1-.449-1-1s.448-1 1-1 1 .449 1 1-.448 1-1 1z"/><path d="m52 29c-1.654 0-3 1.346-3 3s1.346 3 3 3 3-1.346 3-3-1.346-3-3-3zm0 4c-.552 0-1-.449-1-1s.448-1 1-1 1 .449 1 1-.448 1-1 1z"/><path d="m48 37c-1.654 0-3 1.346-3 3s1.346 3 3 3 3-1.346 3-3-1.346-3-3-3zm0 4c-.552 0-1-.448-1-1s.448-1 1-1 1 .448 1 1-.448 1-1 1z"/><path d="m40 37c-1.654 0-3 1.346-3 3s1.346 3 3 3 3-1.346 3-3-1.346-3-3-3zm0 4c-.552 0-1-.448-1-1s.448-1 1-1 1 .448 1 1-.448 1-1 1z"/><path d="m25 32c0-1.654-1.346-3-3-3s-3 1.346-3 3 1.346 3 3 3 3-1.346 3-3zm-4 0c0-.551.448-1 1-1s1 .449 1 1-.448 1-1 1-1-.449-1-1z"/><path d="m15 32c0-1.654-1.346-3-3-3s-3 1.346-3 3 1.346 3 3 3 3-1.346 3-3zm-3 1c-.552 0-1-.449-1-1s.448-1 1-1 1 .449 1 1-.448 1-1 1z"/><path d="m16 37c-1.654 0-3 1.346-3 3s1.346 3 3 3 3-1.346 3-3-1.346-3-3-3zm0 4c-.552 0-1-.448-1-1s.448-1 1-1 1 .448 1 1-.448 1-1 1z"/><path d="m24 37c-1.654 0-3 1.346-3 3s1.346 3 3 3 3-1.346 3-3-1.346-3-3-3zm0 4c-.552 0-1-.448-1-1s.448-1 1-1 1 .448 1 1-.448 1-1 1z"/><path d="m32 37c-1.654 0-3 1.346-3 3s1.346 3 3 3 3-1.346 3-3-1.346-3-3-3zm0 4c-.552 0-1-.448-1-1s.448-1 1-1 1 .448 1 1-.448 1-1 1z"/><path d="m32 29c-1.654 0-3 1.346-3 3s1.346 3 3 3 3-1.346 3-3-1.346-3-3-3zm0 4c-.552 0-1-.449-1-1s.448-1 1-1 1 .449 1 1-.448 1-1 1z"/></g></svg>